<?xml version="1.0" encoding="UTF-8"?>
<svg width="193px" height="192px" viewBox="0 0 193 192" version="1.1" xmlns="http://www.w3.org/2000/svg" xmlns:xlink="http://www.w3.org/1999/xlink">
    <title>img/update/05@1x</title>
    <g id="Guide" stroke="none" stroke-width="1" fill="none" fill-rule="evenodd">
        <g id="01_01_05_TOS5_update" transform="translate(-319.000000, -187.000000)" fill="#FFFFFF" fill-rule="nonzero">
            <g id="img/update/05" transform="translate(319.000000, 187.000000)">
                <path d="M191.55,79.33 C190.780812,74.9250698 189.698059,70.5806884 188.31,66.33 C187.97,65.27 187.61,64.21 187.23,63.16 C185.319123,57.9088276 182.949991,52.8359397 180.15,48 C178.462974,45.1036641 176.627185,42.2965767 174.65,39.59 C173.33,37.79 171.97,36.01 170.54,34.3 C166.938796,30.028768 162.981232,26.0712038 158.71,22.47 C157,21.04 155.22,19.68 153.42,18.36 C150.713423,16.3828147 147.906336,14.5470262 145.01,12.86 C140.170857,10.059479 135.094602,7.69033678 129.84,5.78 C128.84,5.4 127.73,5.04 126.67,4.7 C122.419652,3.31075816 118.075185,2.22798334 113.67,1.46 C102.640748,-0.473308097 91.3592523,-0.473308097 80.33,1.46 C75.9250698,2.22918756 71.5806884,3.31194109 67.33,4.7 C66.27,5.04 65.21,5.4 64.16,5.78 C58.9091685,7.68766507 53.8362906,10.0534465 49,12.85 C46.1036641,14.5370262 43.2965767,16.3728147 40.59,18.35 C38.78,19.67 37,21 35.3,22.46 C31.0206464,26.0593336 27.0593336,30.0206464 23.46,34.3 C22,36 20.67,37.78 19.35,39.58 C17.3725231,42.2898255 15.5367305,45.100257 13.85,48 C11.0500092,52.8359397 8.68087684,57.9088276 6.77,63.16 C6.39,64.16 6.04,65.27 5.69,66.33 C-0.576658635,85.6136525 -0.576658635,106.386347 5.69,125.67 C6.04,126.73 6.39,127.79 6.77,128.84 C8.68087684,134.091172 11.0500092,139.16406 13.85,144 C15.5370262,146.896336 17.3728147,149.703423 19.35,152.41 C20.67,154.21 22.03,155.99 23.46,157.7 C27.0616579,161.977221 31.0227794,165.938342 35.3,169.54 C37,170.97 38.78,172.33 40.58,173.65 C43.2865767,175.627185 46.0936641,177.462974 48.990006,179.15 C53.8291431,181.950521 58.9053985,184.319663 64.16,186.23 C65.16,186.61 66.27,186.97 67.33,187.31 C71.5806884,188.698059 75.9250698,189.780812 80.33,190.55 C91.3592523,192.483308 102.640748,192.483308 113.67,190.55 C118.075185,189.782017 122.419652,188.699242 126.67,187.31 C127.73,186.97 128.79,186.61 129.84,186.23 C138.258544,183.180015 146.198623,178.943959 153.42,173.65 C155.22,172.33 157,170.97 158.71,169.54 C162.983756,165.937908 166.94152,161.976798 170.54,157.7 C171.97,156 173.33,154.22 174.65,152.42 C176.627185,149.713423 178.462974,146.906336 180.15,144.01 C182.950521,139.170857 185.319663,134.094602 187.23,128.84 C187.61,127.84 187.97,126.73 188.31,125.67 C189.698059,121.419312 190.780812,117.07493 191.55,112.67 C193.483308,101.640748 193.483308,90.3592523 191.55,79.33 L191.55,79.33 Z M186.62,111.8 C185.884022,115.973921 184.854805,120.090786 183.54,124.12 C183.21,125.12 182.88,126.12 182.54,127.12 C179.620734,135.092333 175.580105,142.607903 170.54,149.44 C169.3,151.16 168.01,152.84 166.65,154.44 C163.242066,158.497944 159.487944,162.252066 155.43,165.66 C153.82,167.02 152.14,168.31 150.43,169.55 C143.597903,174.590105 136.082333,178.630734 128.11,181.55 C127.11,181.91 126.11,182.24 125.11,182.55 C106.836096,188.504063 87.1439043,188.504063 68.87,182.55 C67.87,182.22 66.87,181.89 65.87,181.55 C57.8933932,178.633343 50.3741623,174.592556 43.54,169.55 C41.82,168.31 40.14,167.02 38.54,165.66 C34.4828394,162.254549 30.7318321,158.500196 27.33,154.44 C25.96,152.83 24.67,151.15 23.43,149.44 C18.4074385,142.604922 14.3837213,135.089493 11.48,127.12 C11.12,126.12 10.79,125.12 10.48,124.12 C4.5259365,105.846096 4.5259365,86.1539043 10.48,67.88 C10.81,66.88 11.14,65.88 11.48,64.88 C14.399266,56.9076673 18.4398953,49.3920968 23.48,42.56 C24.72,40.84 26.01,39.16 27.38,37.56 C30.765071,33.4950271 34.4993096,29.7340198 38.54,26.32 C40.15,24.96 41.83,23.67 43.54,22.43 C46.1140526,20.5520295 48.7843501,18.8096604 51.54,17.21 C56.1238327,14.550483 60.9322905,12.2985052 65.91,10.48 C66.91,10.12 67.91,9.79 68.91,9.48 C87.1839043,3.5259365 106.876096,3.5259365 125.15,9.48 C126.15,9.81 127.15,10.14 128.15,10.48 C136.122333,13.399266 143.637903,17.4398953 150.47,22.48 C152.19,23.72 153.87,25.01 155.47,26.37 C159.527944,29.7779344 163.282066,33.5320558 166.69,37.59 C168.05,39.2 169.34,40.88 170.58,42.59 C175.620105,49.4220968 179.660734,56.9376673 182.58,64.91 C182.94,65.91 183.27,66.91 183.58,67.91 C188.18616,82.0772002 189.24378,97.1585872 186.66,111.83 L186.62,111.8 Z" id="Shape" opacity="0.2"></path>
                <path d="M112.8,6.38 C107.583928,5.4580444 102.296923,4.99626806 97,4.99999794 L97,-2.05533502e-06 C102.588208,-0.00115443608 108.165917,0.484009152 113.67,1.45 C118.075185,2.21798334 122.419652,3.30075816 126.67,4.69 L125.12,9.46 C121.091127,8.14401018 116.974178,7.1147729 112.8,6.38 Z" id="Path"></path>
            </g>
        </g>
    </g>
</svg>