<?xml version="1.0" encoding="UTF-8"?>
<svg width="193px" height="192px" viewBox="0 0 193 192" version="1.1" xmlns="http://www.w3.org/2000/svg" xmlns:xlink="http://www.w3.org/1999/xlink">
    <title>img/update/100@1x</title>
    <g id="Guide" stroke="none" stroke-width="1" fill="none" fill-rule="evenodd">
        <g id="01_01_05_TOS5_update" transform="translate(-1381.000000, -671.000000)" fill="#FFFFFF" fill-rule="nonzero">
            <g id="img/update/100" transform="translate(1381.000000, 671.000000)">
                <path d="M191.55,79.33 C190.780812,74.9250698 189.698059,70.5806884 188.31,66.33 C187.97,65.27 187.61,64.21 187.23,63.16 C185.319123,57.9088276 182.949991,52.8359397 180.15,48 C178.462974,45.1036641 176.627185,42.2965767 174.65,39.59 C173.33,37.79 171.97,36.01 170.54,34.31 C166.94152,30.0332016 162.983756,26.0720924 158.71,22.47 C157,21.04 155.22,19.68 153.42,18.36 C150.713423,16.3828147 147.906336,14.5470262 145.01,12.86 C140.170857,10.059479 135.094602,7.69033678 129.84,5.78 C128.84,5.4 127.73,5.04 126.67,4.7 C122.419652,3.31075816 118.075185,2.22798334 113.67,1.46 C102.640748,-0.473308097 91.3592523,-0.473308097 80.33,1.46 C75.9250698,2.22918756 71.5806884,3.31194109 67.33,4.7 C66.27,5.04 65.21,5.4 64.16,5.78 C58.9091685,7.68766507 53.8362906,10.0534465 49,12.85 C46.1036641,14.5370262 43.2965767,16.3728147 40.59,18.35 C38.78,19.67 37,21 35.29,22.46 C31.018768,26.0612038 27.0612038,30.018768 23.46,34.29 C22,36 20.67,37.78 19.35,39.58 C17.3725231,42.2898255 15.5367305,45.100257 13.85,48 C11.0500092,52.8359397 8.68087684,57.9088276 6.77,63.16 C6.39,64.16 6.04,65.27 5.69,66.33 C-0.576658635,85.6136525 -0.576658635,106.386347 5.69,125.67 C6.04,126.73 6.39,127.79 6.77,128.84 C8.68087684,134.091172 11.0500092,139.16406 13.85,144 C15.5370262,146.896336 17.3728147,149.703423 19.35,152.41 C20.67,154.21 22.03,155.99 23.46,157.69 C27.05848,161.966798 31.0162436,165.927908 35.29,169.53 C37,170.96 38.78,172.32 40.58,173.64 C43.2865767,175.617185 46.0936641,177.452974 48.990006,179.14 C53.8291431,181.940521 58.9053985,184.309663 64.16,186.22 C65.16,186.6 66.27,186.96 67.33,187.3 C71.5803482,188.689242 75.9248151,189.772017 80.33,190.54 C91.3592523,192.473308 102.640748,192.473308 113.67,190.54 C118.075185,189.772017 122.419652,188.689242 126.67,187.3 C127.73,186.96 128.79,186.6 129.84,186.22 C135.090832,184.312335 140.163709,181.946553 145,179.15 C147.896336,177.462974 150.703423,175.627185 153.41,173.65 C155.21,172.33 156.990006,170.97 158.7,169.54 C162.971232,165.938796 166.928796,161.981232 170.53,157.71 C171.96,156 173.32,154.22 174.64,152.42 C176.617185,149.713423 178.452974,146.906336 180.14,144.01 C182.940521,139.170857 185.309663,134.094602 187.22,128.84 C187.6,127.84 187.96,126.73 188.3,125.67 C189.688059,121.419312 190.770812,117.07493 191.54,112.67 C193.473308,101.640748 193.473308,90.3592523 191.54,79.33 L191.55,79.33 Z M186.62,111.8 C185.884022,115.973921 184.854805,120.090786 183.54,124.12 C183.21,125.12 182.88,126.12 182.54,127.12 C179.620734,135.092333 175.580105,142.607903 170.54,149.44 C169.3,151.16 168.01,152.84 166.65,154.44 C163.242066,158.497944 159.487944,162.252066 155.43,165.66 C153.82,167.02 152.14,168.31 150.43,169.55 C147.855947,171.42797 145.18565,173.17034 142.43,174.77 C137.846167,177.429517 133.03771,179.681495 128.06,181.5 C127.06,181.86 126.06,182.19 125.06,182.5 C106.786096,188.454063 87.0939043,188.454063 68.82,182.5 C67.82,182.17 66.82,181.84 65.82,181.5 C60.8422905,179.681495 56.0338327,177.429517 51.45,174.77 C48.6943501,173.17034 46.0240526,171.42797 43.45,169.55 C41.73,168.31 40.05,167.02 38.45,165.66 C34.3920558,162.252066 30.6379344,158.497944 27.23,154.44 C25.87,152.83 24.58,151.15 23.34,149.44 C18.3174385,142.604922 14.2937213,135.089493 11.39,127.12 C11.03,126.12 10.7,125.12 10.39,124.12 C4.4359365,105.846096 4.4359365,86.1539043 10.39,67.88 C10.72,66.88 11.05,65.88 11.39,64.88 C14.309266,56.9076673 18.3498953,49.3920968 23.39,42.56 C24.63,40.84 25.92,39.16 27.28,37.56 C30.6997511,33.4934056 34.4673324,29.7325162 38.54,26.32 C40.15,24.96 41.83,23.67 43.54,22.43 C46.1140526,20.5520295 48.7843501,18.8096604 51.54,17.21 C56.1238327,14.550483 60.9322905,12.2985052 65.91,10.48 C66.91,10.12 67.91,9.79 68.91,9.48 C87.1839043,3.5259365 106.876096,3.5259365 125.15,9.48 C126.15,9.81 127.15,10.14 128.15,10.48 C136.122333,13.399266 143.637903,17.4398953 150.47,22.48 C152.19,23.72 153.87,25.01 155.47,26.37 C159.527944,29.7779344 163.282066,33.5320558 166.69,37.59 C168.05,39.2 169.34,40.88 170.58,42.59 C175.620105,49.4220968 179.660734,56.9376673 182.58,64.91 C182.94,65.91 183.27,66.91 183.58,67.91 C188.18616,82.0772002 189.24378,97.1585872 186.66,111.83 L186.62,111.8 Z" id="Shape"></path>
            </g>
        </g>
    </g>
</svg>