<?xml version="1.0" encoding="UTF-8"?>
<svg width="192px" height="192px" viewBox="0 0 192 192" version="1.1" xmlns="http://www.w3.org/2000/svg" xmlns:xlink="http://www.w3.org/1999/xlink">
    <title>img/update/15@1x</title>
    <g id="Guide" stroke="none" stroke-width="1" fill="none" fill-rule="evenodd">
        <g id="01_01_05_TOS5_update" transform="translate(-744.000000, -187.000000)" fill="#FFFFFF" fill-rule="nonzero">
            <g id="img/update/15" transform="translate(744.000000, 187.000000)">
                <path d="M190.55,79.33 C189.780812,74.9250698 188.698059,70.5806884 187.31,66.33 C186.97,65.27 186.61,64.21 186.23,63.16 C184.319123,57.9088276 181.949991,52.8359397 179.15,48 C177.462974,45.1036641 175.627185,42.2965767 173.65,39.59 C172.33,37.79 170.97,36.01 169.54,34.31 C165.94152,30.0332016 161.983756,26.0720924 157.71,22.47 C156,21.04 154.22,19.68 152.42,18.36 C149.713423,16.3828147 146.906336,14.5470262 144.01,12.86 C139.170857,10.059479 134.094602,7.69033678 128.84,5.78 C127.84,5.4 126.73,5.04 125.67,4.7 C121.419312,3.31194109 117.07493,2.22918756 112.67,1.46 C101.640748,-0.473308097 90.3592523,-0.473308097 79.33,1.46 C74.9250698,2.22918756 70.5806884,3.31194109 66.33,4.7 C65.27,5.04 64.21,5.4 63.16,5.78 C57.9091685,7.68766507 52.8362906,10.0534465 48,12.85 C45.1036641,14.5370262 42.2965767,16.3728147 39.59,18.35 C37.78,19.67 36,21 34.3,22.46 C30.0232016,26.05848 26.0620924,30.0162436 22.46,34.29 C21,36 19.67,37.78 18.35,39.58 C16.3725231,42.2898255 14.5367305,45.100257 12.85,48 C10.0500092,52.8359397 7.68087684,57.9088276 5.77,63.16 C5.39,64.16 5.03,65.27 4.69,66.33 C3.30194109,70.5806884 2.21918756,74.9250698 1.45,79.33 C-0.483308097,90.3592523 -0.483308097,101.640748 1.45,112.67 C2.21918756,117.07493 3.30194109,121.419312 4.69,125.67 C5.03,126.73 5.39,127.79 5.77,128.84 C7.68087684,134.091172 10.0500092,139.16406 12.85,144 C14.5370262,146.896336 16.3728147,149.703423 18.35,152.41 C19.67,154.21 21.03,155.99 22.46,157.69 C26.058896,161.972819 30.0202212,165.93749 34.3,169.54 C36,170.97 37.78,172.33 39.58,173.65 C42.2865767,175.627185 45.0936641,177.462974 47.99,179.15 C52.8291431,181.950521 57.9053985,184.319663 63.16,186.23 C64.16,186.61 65.27,186.97 66.33,187.31 C70.5806884,188.698059 74.9250698,189.780812 79.33,190.55 C90.3592523,192.483308 101.640748,192.483308 112.67,190.55 C117.07493,189.780812 121.419312,188.698059 125.67,187.31 C126.73,186.97 127.79,186.61 128.84,186.23 C134.091172,184.319123 139.16406,181.949991 144,179.15 C146.896336,177.462974 149.703423,175.627185 152.41,173.65 C154.21,172.33 155.99,170.97 157.69,169.54 C161.966798,165.94152 165.927908,161.983756 169.53,157.71 C170.96,156 172.32,154.22 173.64,152.42 C175.617185,149.713423 177.452974,146.906336 179.14,144.01 C181.940521,139.170857 184.309663,134.094602 186.22,128.84 C186.6,127.84 186.96,126.73 187.3,125.67 C188.688059,121.419312 189.770812,117.07493 190.54,112.67 C192.473308,101.640748 192.473308,90.3592523 190.54,79.33 L190.55,79.33 Z M185.62,111.8 C184.884022,115.973921 183.854805,120.090786 182.54,124.12 C182.21,125.12 181.88,126.12 181.54,127.12 C178.620734,135.092333 174.580105,142.607903 169.54,149.44 C168.3,151.16 167.01,152.84 165.65,154.44 C162.242066,158.497944 158.487944,162.252066 154.43,165.66 C152.82,167.02 151.14,168.31 149.43,169.55 C142.597903,174.590105 135.082333,178.630734 127.11,181.55 C126.11,181.91 125.11,182.24 124.11,182.55 C105.836096,188.504063 86.1439043,188.504063 67.87,182.55 C66.87,182.22 65.87,181.89 64.87,181.55 C56.8976673,178.630734 49.3820968,174.590105 42.55,169.55 C40.83,168.31 39.15,167.02 37.55,165.66 C33.4920558,162.252066 29.7379344,158.497944 26.33,154.44 C24.97,152.83 23.68,151.15 22.44,149.44 C17.4174385,142.604922 13.3937213,135.089493 10.49,127.12 C10.13,126.12 9.8,125.12 9.49,124.12 C3.5359365,105.846096 3.5359365,86.1539043 9.49,67.88 C9.82,66.88 10.15,65.88 10.49,64.88 C13.409266,56.9076673 17.4498953,49.3920968 22.49,42.56 C23.73,40.84 25.02,39.16 26.38,37.56 C29.7679983,33.4976909 33.5019942,29.736928 37.54,26.32 C39.15,24.96 40.83,23.67 42.54,22.43 C49.3781688,17.4066052 56.8970172,13.3828596 64.87,10.48 C65.87,10.12 66.87,9.79 67.87,9.48 C86.1439043,3.5259365 105.836096,3.5259365 124.11,9.48 C125.11,9.81 126.11,10.14 127.11,10.48 C135.082333,13.399266 142.597903,17.4398953 149.43,22.48 C151.15,23.72 152.83,25.01 154.43,26.37 C158.487944,29.7779344 162.242066,33.5320558 165.65,37.59 C167.01,39.2 168.3,40.88 169.54,42.59 C174.580105,49.4220968 178.620734,56.9376673 181.54,64.91 C181.9,65.91 182.23,66.91 182.54,67.91 C187.14616,82.0772002 188.20378,97.1585872 185.62,111.83 L185.62,111.8 Z" id="Shape" opacity="0.2"></path>
                <path d="M169.54,34.3 C165.94152,30.0232016 161.983756,26.0620924 157.71,22.46 C156,21.03 154.22,19.67 152.42,18.35 C149.713423,16.3728147 146.906336,14.5370262 144.01,12.85 C139.170857,10.049479 134.094602,7.68033678 128.84,5.77 C127.84,5.39 126.73,5.03 125.67,4.69 C121.419312,3.30194109 117.07493,2.21918756 112.67,1.45 C107.165917,0.484009152 101.588208,-0.00115443608 96,-2.05533503e-06 L96,4.99999794 C105.549862,4.99469184 115.04046,6.49995743 124.12,9.46 C125.12,9.79 126.12,10.12 127.12,10.46 C135.092333,13.379266 142.607903,17.4198953 149.44,22.46 C151.16,23.7 152.84,24.99 154.44,26.35 C158.497944,29.7579344 162.252066,33.5120558 165.66,37.57 C167.02,39.18 168.31,40.86 169.55,42.57 L173.63,39.57 C172.33,37.78 171,35.9999979 169.54,34.3 Z" id="Path"></path>
            </g>
        </g>
    </g>
</svg>