<?xml version="1.0" encoding="UTF-8"?>
<svg width="194px" height="192px" viewBox="0 0 194 192" version="1.1" xmlns="http://www.w3.org/2000/svg" xmlns:xlink="http://www.w3.org/1999/xlink">
    <title>img/update/40@1x</title>
    <g id="Guide" stroke="none" stroke-width="1" fill="none" fill-rule="evenodd">
        <g id="01_01_05_TOS5_update" transform="translate(-319.000000, -429.000000)" fill="#FFFFFF" fill-rule="nonzero">
            <g id="img/update/40" transform="translate(319.000000, 429.000000)">
                <path d="M191.55,79.33 C190.780812,74.9250698 189.698059,70.5806884 188.31,66.33 C187.97,65.27 187.61,64.21 187.23,63.16 C185.319123,57.9088276 182.949991,52.8359397 180.15,48 C178.462974,45.1036641 176.627185,42.2965767 174.65,39.59 C173.33,37.79 171.97,36.01 170.54,34.31 C166.94152,30.0332016 162.983756,26.0720924 158.71,22.47 C157,21.04 155.22,19.68 153.42,18.36 C150.713423,16.3828147 147.906336,14.5470262 145.01,12.86 C140.170857,10.059479 135.094602,7.69033678 129.84,5.78 C128.84,5.4 127.73,5.04 126.67,4.7 C122.419652,3.31075816 118.075185,2.22798334 113.67,1.46 C102.640748,-0.473308097 91.3592523,-0.473308097 80.33,1.46 C75.9250698,2.22918756 71.5806884,3.31194109 67.33,4.7 C66.27,5.04 65.21,5.4 64.16,5.78 C58.9091685,7.68766507 53.8362906,10.0534465 49,12.85 C46.1036641,14.5370262 43.2965767,16.3728147 40.59,18.35 C38.78,19.67 37,21 35.3,22.46 C31.0232016,26.05848 27.0620924,30.0162436 23.46,34.29 C22,36 20.67,37.78 19.35,39.58 C17.3725231,42.2898255 15.5367305,45.100257 13.85,48 C11.0500092,52.8359397 8.68087684,57.9088276 6.77,63.16 C6.39,64.16 6.04,65.27 5.69,66.33 C-0.576658635,85.6136525 -0.576658635,106.386347 5.69,125.67 C6.03,126.73 6.39,127.79 6.77,128.84 C8.68087684,134.091172 11.0500092,139.16406 13.85,144 C15.5370262,146.896336 17.3728147,149.703423 19.35,152.41 C20.67,154.21 22.03,155.99 23.46,157.69 C27.058896,161.972819 31.0202212,165.93749 35.3,169.54 C37,170.97 38.78,172.33 40.58,173.65 C43.2865767,175.627185 46.0936641,177.462974 48.990006,179.15 C53.8291431,181.950521 58.9053985,184.319663 64.16,186.23 C65.16,186.61 66.27,186.97 67.33,187.31 C71.5806884,188.698059 75.9250698,189.780812 80.33,190.55 C91.3592523,192.483308 102.640748,192.483308 113.67,190.55 C118.07493,189.780812 122.419312,188.698059 126.67,187.31 C127.73,186.97 128.79,186.61 129.84,186.23 C135.091172,184.319123 140.16406,181.949991 145,179.15 C147.896336,177.462974 150.703423,175.627185 153.41,173.65 C155.21,172.33 156.990006,170.97 158.7,169.54 C162.971232,165.938796 166.928796,161.981232 170.53,157.71 C171.96,156 173.32,154.22 174.64,152.42 C176.617185,149.713423 178.452974,146.906336 180.14,144.01 C182.940521,139.170857 185.309663,134.094602 187.22,128.84 C187.6,127.84 187.96,126.73 188.3,125.67 C189.688059,121.419312 190.770812,117.07493 191.54,112.67 C193.473308,101.640748 193.473308,90.3592523 191.54,79.33 L191.55,79.33 Z M182.55,127.13 C179.630734,135.102333 175.590105,142.617903 170.55,149.45 C169.31,151.17 168.02,152.85 166.66,154.45 C163.252066,158.507944 159.497944,162.262066 155.44,165.67 C153.83,167.03 152.15,168.32 150.44,169.56 C143.607903,174.600105 136.092333,178.640734 128.12,181.56 C127.12,181.92 126.12,182.25 125.12,182.56 C106.846096,188.514063 87.1539043,188.514063 68.88,182.56 C67.88,182.23 66.88,181.9 65.88,181.56 C57.9076673,178.640734 50.3920968,174.600105 43.56,169.56 C41.84,168.32 40.16,167.03 38.56,165.67 C34.5020558,162.262066 30.7479344,158.507944 27.34,154.45 C25.98,152.84 24.69,151.16 23.45,149.45 C18.4274385,142.614922 14.4037213,135.099493 11.5,127.13 C11.14,126.13 10.81,125.13 10.5,124.13 C4.5459365,105.856096 4.5459365,86.1639043 10.5,67.89 C10.83,66.89 11.16,65.89 11.5,64.89 C14.419266,56.9176673 18.4598953,49.4020968 23.5,42.57 C24.74,40.85 26.03,39.17 27.39,37.57 C30.7743809,33.5046518 34.505031,29.740543 38.54,26.32 C40.15,24.96 41.83,23.67 43.54,22.43 C46.1140526,20.5520295 48.7843501,18.8096604 51.54,17.21 C56.1238327,14.550483 60.9322905,12.2985052 65.91,10.48 C66.91,10.12 67.91,9.79 68.91,9.48 C87.1839043,3.5259365 106.876096,3.5259365 125.15,9.48 C126.15,9.81 127.15,10.14 128.15,10.48 C136.122333,13.399266 143.637903,17.4398953 150.47,22.48 C152.19,23.72 153.87,25.01 155.47,26.37 C159.527944,29.7779344 163.282066,33.5320558 166.69,37.59 C168.05,39.2 169.34,40.88 170.58,42.59 C175.620105,49.4220968 179.660734,56.9376673 182.58,64.91 C182.94,65.91 183.27,66.91 183.58,67.91 C189.534063,86.1839043 189.534063,105.876096 183.58,124.15 C183.21,125.13 182.88,126.13 182.52,127.13 L182.55,127.13 Z" id="Shape" opacity="0.2"></path>
                <path d="M191.55,79.33 C190.780812,74.9250698 189.698059,70.5806884 188.31,66.33 C187.97,65.27 187.61,64.21 187.23,63.16 C185.319123,57.9088276 182.949991,52.8359397 180.15,48 C178.462974,45.1036641 176.627185,42.2965767 174.65,39.59 C173.33,37.79 171.97,36.01 170.54,34.31 C166.94152,30.0332016 162.983756,26.0720924 158.71,22.47 C157,21.04 155.22,19.68 153.42,18.36 C150.713423,16.3828147 147.906336,14.5470262 145.01,12.86 C140.170857,10.059479 135.094602,7.69033678 129.84,5.78 C128.84,5.4 127.73,5.04 126.67,4.7 C122.419652,3.31075816 118.075185,2.22798334 113.67,1.46 C108.16621,0.490657002 102.588499,0.00214726593 97,-1.42108547e-14 L97,5 C106.549862,4.99469184 116.04046,6.49995743 125.12,9.46 C126.12,9.79 127.12,10.12 128.12,10.46 C136.092333,13.379266 143.607903,17.4198953 150.44,22.46 C152.16,23.7 153.84,24.99 155.44,26.35 C159.497944,29.7579344 163.252066,33.5120558 166.66,37.57 C168.02,39.18 169.31,40.86 170.55,42.57 C175.590105,49.4020968 179.630734,56.9176673 182.55,64.89 C182.91,65.89 183.24,66.89 183.55,67.89 C189.504063,86.1639043 189.504063,105.856096 183.55,124.13 C183.22,125.13 182.89,126.13 182.55,127.13 C179.630734,135.102333 175.590105,142.617903 170.55,149.45 C169.31,151.17 168.02,152.85 166.66,154.45 C163.252066,158.507944 159.497944,162.262066 155.44,165.67 C153.83,167.03 152.15,168.32 150.44,169.56 L153.44,173.64 C155.24,172.32 157.02,170.96 158.73,169.53 C163.001232,165.928796 166.958796,161.971232 170.56,157.7 C171.99,155.99 173.35,154.21 174.67,152.41 C176.647185,149.703423 178.482974,146.896336 180.17,144 C182.970521,139.160857 185.339663,134.084602 187.25,128.83 C187.63,127.83 187.99,126.72 188.33,125.66 C189.718059,121.409312 190.800812,117.06493 191.57,112.66 C193.503308,101.630748 193.503308,90.3492523 191.57,79.32 L191.55,79.33 Z" id="Path"></path>
            </g>
        </g>
    </g>
</svg>