<?xml version="1.0" encoding="UTF-8"?>
<svg width="192px" height="192px" viewBox="0 0 192 192" version="1.1" xmlns="http://www.w3.org/2000/svg" xmlns:xlink="http://www.w3.org/1999/xlink">
    <title>img/update/60@1x</title>
    <g id="Guide" stroke="none" stroke-width="1" fill="none" fill-rule="evenodd">
        <g id="01_01_05_TOS5_update" transform="translate(-1170.000000, -429.000000)" fill="#FFFFFF" fill-rule="nonzero">
            <g id="img/update/60" transform="translate(1170.000000, 429.000000)">
                <path d="M190.55,79.33 C189.776087,74.9260712 188.693416,70.5820217 187.31,66.33 C186.96,65.27 186.61,64.21 186.23,63.16 C184.319123,57.9088276 181.949991,52.8359397 179.15,48 C177.462974,45.1036641 175.627185,42.2965767 173.65,39.59 C172.33,37.79 170.97,36.01 169.54,34.31 C165.94152,30.0332016 161.983756,26.0720924 157.71,22.47 C156,21.04 154.22,19.68 152.42,18.36 C149.713423,16.3828147 146.906336,14.5470262 144.01,12.86 C139.170857,10.059479 134.094602,7.69033678 128.84,5.78 C127.84,5.4 126.73,5.04 125.67,4.7 C121.419312,3.31194109 117.07493,2.22918756 112.67,1.46 C101.640748,-0.473308097 90.3592523,-0.473308097 79.33,1.46 C74.9248151,2.22798334 70.5803482,3.31075816 66.33,4.7 C65.27,5.04 64.21,5.4 63.16,5.78 C57.9091685,7.68766507 52.8362906,10.0534465 48,12.85 C45.1036641,14.5370262 42.2965767,16.3728147 39.59,18.35 C37.78,19.67 36,21 34.29,22.46 C30.018768,26.0612038 26.0612038,30.018768 22.46,34.29 C21,36 19.67,37.78 18.35,39.58 C16.3725231,42.2898255 14.5367305,45.100257 12.85,48 C10.0500092,52.8359397 7.68087684,57.9088276 5.77,63.16 C5.39,64.16 5.03,65.27 4.69,66.33 C3.30194109,70.5806884 2.21918756,74.9250698 1.45,79.33 C-0.483308097,90.3592523 -0.483308097,101.640748 1.45,112.67 C2.21918756,117.07493 3.30194109,121.419312 4.69,125.67 C5.03,126.73 5.39,127.79 5.77,128.84 C7.68087684,134.091172 10.0500092,139.16406 12.85,144 C14.5370262,146.896336 16.3728147,149.703423 18.35,152.41 C19.67,154.21 21.03,155.99 22.46,157.69 C26.05848,161.966798 30.0162436,165.927908 34.29,169.53 C36,170.96 37.78,172.32 39.58,173.64 C42.2865767,175.617185 45.0936641,177.452974 47.99,179.14 C52.8291431,181.940521 57.9053985,184.309663 63.16,186.22 C64.16,186.6 65.27,186.96 66.33,187.3 C70.5803482,188.689242 74.9248151,189.772017 79.33,190.54 C90.3592523,192.473308 101.640748,192.473308 112.67,190.54 C117.07493,189.770812 121.419312,188.688059 125.67,187.3 C126.73,186.96 127.79,186.6 128.84,186.22 C134.090832,184.312335 139.163709,181.946553 144,179.15 C146.896336,177.462974 149.703423,175.627185 152.41,173.65 C154.21,172.33 155.99,170.97 157.69,169.54 C161.966798,165.94152 165.927908,161.983756 169.53,157.71 C170.96,156 172.32,154.22 173.64,152.42 C175.617185,149.713423 177.452974,146.906336 179.14,144.01 C181.940521,139.170857 184.309663,134.094602 186.22,128.84 C186.6,127.84 186.95,126.73 187.3,125.67 C192.144411,110.71899 193.256758,94.8096723 190.54,79.33 L190.55,79.33 Z M181.55,127.13 C178.630734,135.102333 174.590105,142.617903 169.55,149.45 C168.31,151.17 167.02,152.85 165.65,154.45 C162.248168,158.510196 158.497161,162.264549 154.44,165.67 C152.83,167.03 151.15,168.32 149.44,169.56 C142.605838,174.602556 135.086607,178.643343 127.11,181.56 C126.11,181.92 125.11,182.25 124.11,182.56 C105.836096,188.514063 86.1439043,188.514063 67.87,182.56 C66.87,182.23 65.87,181.9 64.87,181.56 C56.8976673,178.640734 49.3820968,174.600105 42.55,169.56 C40.83,168.32 39.15,167.03 37.55,165.67 C33.4920558,162.262066 29.7379344,158.507944 26.33,154.45 C24.97,152.84 23.68,151.16 22.44,149.45 C17.4174385,142.614922 13.3937213,135.099493 10.49,127.13 C10.13,126.13 9.8,125.13 9.49,124.13 C3.5359365,105.856096 3.5359365,86.1639043 9.49,67.89 C9.82,66.89 10.15,65.89 10.49,64.89 C13.409266,56.9176673 17.4498953,49.4020968 22.49,42.57 C23.73,40.85 25.02,39.17 26.38,37.57 C29.7675565,33.504225 33.501565,29.7401036 37.54,26.32 C39.15,24.96 40.83,23.67 42.54,22.43 C49.3781688,17.4066052 56.8970172,13.3828596 64.87,10.48 C65.87,10.12 66.87,9.79 67.87,9.48 C86.1439043,3.5259365 105.836096,3.5259365 124.11,9.48 C125.11,9.81 126.11,10.14 127.11,10.48 C132.08771,12.2985052 136.896167,14.550483 141.48,17.21 C144.23565,18.8096604 146.905947,20.5520295 149.48,22.43 C151.2,23.67 152.88,24.96 154.48,26.32 C158.537944,29.7279344 162.292066,33.4820558 165.7,37.54 C167.06,39.15 168.35,40.83 169.59,42.54 C174.630105,49.3720968 178.670734,56.8876673 181.59,64.86 C181.95,65.86 182.28,66.86 182.59,67.86 C188.544063,86.1339043 188.544063,105.826096 182.59,124.1 C182.21,125.13 181.88,126.13 181.52,127.13 L181.55,127.13 Z" id="Shape" opacity="0.2"></path>
                <path d="M190.55,79.33 C189.776087,74.9260712 188.693416,70.5820217 187.31,66.33 C186.96,65.27 186.61,64.21 186.23,63.16 C184.319123,57.9088276 181.949991,52.8359397 179.15,48 C177.462974,45.1036641 175.627185,42.2965767 173.65,39.59 C172.33,37.79 170.97,36.01 169.54,34.31 C165.94152,30.0332016 161.983756,26.0720924 157.71,22.47 C156,21.04 154.22,19.68 152.42,18.36 C149.713423,16.3828147 146.906336,14.5470262 144.01,12.86 C139.170857,10.059479 134.094602,7.69033678 128.84,5.78 C127.84,5.4 126.73,5.04 125.67,4.7 C121.419312,3.31194109 117.07493,2.22918756 112.67,1.46 C107.16621,0.490657002 101.588499,0.00214726593 96,-1.42108547e-14 L96,5 C105.549862,4.99469184 115.04046,6.49995743 124.12,9.46 C125.12,9.79 126.12,10.12 127.12,10.46 C132.09771,12.2785052 136.906167,14.530483 141.49,17.19 C144.24565,18.7896604 146.915947,20.5320295 149.49,22.41 C151.21,23.65 152.89,24.94 154.49,26.3 C158.547944,29.7079344 162.302066,33.4620558 165.71,37.52 C167.07,39.13 168.36,40.81 169.6,42.52 C174.640105,49.3520968 178.680734,56.8676673 181.6,64.84 C181.96,65.84 182.29,66.84 182.6,67.84 C188.554063,86.1139043 188.554063,105.806096 182.6,124.08 C182.27,125.08 181.94,126.08 181.6,127.08 C178.680734,135.052333 174.640105,142.567903 169.6,149.4 C168.36,151.12 167.07,152.8 165.7,154.4 C162.298168,158.460196 158.547161,162.214549 154.49,165.62 C152.88,166.98 151.2,168.27 149.49,169.51 C142.655838,174.552556 135.136607,178.593343 127.16,181.51 C126.16,181.87 125.16,182.2 124.16,182.51 C105.886096,188.464063 86.1939043,188.464063 67.92,182.51 C66.92,182.18 65.92,181.85 64.92,181.51 C56.9476673,178.590734 49.4320968,174.550105 42.6,169.51 L39.6,173.59 C42.3065767,175.567185 45.1136641,177.402974 48.01,179.09 C52.8491431,181.890521 57.9253985,184.259663 63.18,186.17 C64.18,186.55 65.29,186.91 66.35,187.25 C70.6003482,188.639242 74.9448151,189.722017 79.35,190.49 C90.3792523,192.423308 101.660748,192.423308 112.69,190.49 C117.09493,189.720812 121.439312,188.638059 125.69,187.25 C126.75,186.91 127.81,186.55 128.86,186.17 C134.102273,184.277317 139.168367,181.928309 144,179.15 C146.896336,177.462974 149.703423,175.627185 152.41,173.65 C154.21,172.33 155.99,170.97 157.69,169.54 C161.966798,165.94152 165.927908,161.983756 169.53,157.71 C170.96,156 172.32,154.22 173.64,152.42 C175.617185,149.713423 177.452974,146.906336 179.14,144.01 C181.940521,139.170857 184.309663,134.094602 186.22,128.84 C186.6,127.84 186.95,126.73 187.3,125.67 C192.144411,110.71899 193.256758,94.8096723 190.54,79.33 L190.55,79.33 Z" id="Path"></path>
            </g>
        </g>
    </g>
</svg>