<?xml version="1.0" encoding="UTF-8"?>
<svg width="192px" height="192px" viewBox="0 0 192 192" version="1.1" xmlns="http://www.w3.org/2000/svg" xmlns:xlink="http://www.w3.org/1999/xlink">
    <title>img/update/65@1x</title>
    <g id="Guide" stroke="none" stroke-width="1" fill="none" fill-rule="evenodd">
        <g id="01_01_05_TOS5_update" transform="translate(-1382.000000, -429.000000)" fill="#FFFFFF" fill-rule="nonzero">
            <g id="img/update/65" transform="translate(1382.000000, 429.000000)">
                <path d="M185.62,111.8 C184.884022,115.973921 183.854805,120.090786 182.54,124.12 L187.31,125.67 C190.424426,116.088305 192.007228,106.075141 192.000025,96 L187,96 C187.003732,101.296923 186.541956,106.583928 185.62,111.8 L185.62,111.8 Z" id="Path" opacity="0.2"></path>
                <path d="M185.62,80.2 C186.541956,85.4160722 187.003732,90.7030766 187,96 L192.000025,96 C192.007228,85.9248587 190.424426,75.9116949 187.31,66.33 L182.54,67.88 C183.854805,71.9092142 184.884022,76.026079 185.62,80.2 L185.62,80.2 Z" id="Path" opacity="0.2"></path>
                <path d="M181.52,127.13 C178.600734,135.102333 174.560105,142.617903 169.52,149.45 C168.28,151.17 166.99,152.85 165.63,154.45 C162.222066,158.507944 158.467944,162.262066 154.41,165.67 C152.8,167.03 151.12,168.32 149.41,169.56 C146.835947,171.43797 144.16565,173.18034 141.41,174.78 C136.826167,177.439517 132.01771,179.691495 127.04,181.51 C126.04,181.87 125.04,182.2 124.04,182.51 C105.766096,188.464063 86.0739043,188.464063 67.8,182.51 C66.8,182.18 65.8,181.85 64.8,181.51 C56.8276673,178.590734 49.3120968,174.550105 42.48,169.51 C40.76,168.27 39.08,166.98 37.48,165.62 C33.4220558,162.212066 29.6679344,158.457944 26.26,154.4 C24.9,152.79 23.61,151.11 22.37,149.4 C17.3474385,142.564922 13.3237213,135.049493 10.42,127.08 C10.06,126.08 9.73,125.08 9.42,124.08 C3.4659365,105.806096 3.4659365,86.1139043 9.42,67.84 C9.75,66.84 10.08,65.84 10.42,64.84 C13.339266,56.8676673 17.3798953,49.3520968 22.42,42.52 C23.66,40.8 24.95,39.12 26.31,37.52 C29.7219919,33.4685591 33.4794466,29.7211422 37.54,26.32 C39.15,24.96 40.83,23.67 42.54,22.43 C49.3781688,17.4066052 56.8970172,13.3828596 64.87,10.48 C65.87,10.12 66.87,9.79 67.87,9.48 C86.1439043,3.5259365 105.836096,3.5259365 124.11,9.48 C125.11,9.81 126.11,10.14 127.11,10.48 C132.08771,12.2985052 136.896167,14.550483 141.48,17.21 C144.23565,18.8096604 146.905947,20.5520295 149.48,22.43 C151.2,23.67 152.88,24.96 154.48,26.32 C158.537944,29.7279344 162.292066,33.4820558 165.7,37.54 C167.06,39.15 168.35,40.83 169.59,42.54 C174.630105,49.3720968 178.670734,56.8876673 181.59,64.86 C181.95,65.86 182.28,66.86 182.59,67.86 L187.36,66.31 C187.01,65.25 186.66,64.19 186.28,63.14 C184.351987,57.8939796 181.96612,52.8277769 179.15,48 C177.462974,45.1036641 175.627185,42.2965767 173.65,39.59 C172.33,37.79 170.97,36.01 169.54,34.31 C165.94152,30.0332016 161.983756,26.0720924 157.71,22.47 C156,21.04 154.22,19.68 152.42,18.36 C149.713423,16.3828147 146.906336,14.5470262 144.01,12.86 C139.170857,10.059479 134.094602,7.69033678 128.84,5.78 C127.84,5.4 126.73,5.04 125.67,4.7 C121.419312,3.31194109 117.07493,2.22918756 112.67,1.46 C101.640748,-0.473308097 90.3592523,-0.473308097 79.33,1.46 C74.9248151,2.22798334 70.5803482,3.31075816 66.33,4.7 C65.27,5.04 64.21,5.4 63.16,5.78 C57.9091685,7.68766507 52.8362906,10.0534465 48,12.85 C45.1036641,14.5370262 42.2965767,16.3728147 39.59,18.35 C37.78,19.67 36,21 34.29,22.46 C30.018768,26.0612038 26.0612038,30.018768 22.46,34.29 C21,36 19.67,37.78 18.35,39.58 C16.3725231,42.2898255 14.5367305,45.100257 12.85,48 C10.0500092,52.8359397 7.68087684,57.9088276 5.77,63.16 C5.39,64.16 5.03,65.27 4.69,66.33 C3.30194109,70.5806884 2.21918756,74.9250698 1.45,79.33 C-0.483308097,90.3592523 -0.483308097,101.640748 1.45,112.67 C2.21918756,117.07493 3.30194109,121.419312 4.69,125.67 C5.03,126.73 5.39,127.79 5.77,128.84 C7.68087684,134.091172 10.0500092,139.16406 12.85,144 C14.5370262,146.896336 16.3728147,149.703423 18.35,152.41 C19.67,154.21 21.03,155.99 22.46,157.69 C26.05848,161.966798 30.0162436,165.927908 34.29,169.53 C36,170.96 37.78,172.32 39.58,173.64 C42.2865767,175.617185 45.0936641,177.452974 47.99,179.14 C52.8291431,181.940521 57.9053985,184.309663 63.16,186.22 C64.16,186.6 65.27,186.96 66.33,187.3 C70.5803482,188.689242 74.9248151,189.772017 79.33,190.54 C90.3592523,192.473308 101.640748,192.473308 112.67,190.54 C117.07493,189.770812 121.419312,188.688059 125.67,187.3 C126.73,186.96 127.79,186.6 128.84,186.22 C134.090832,184.312335 139.163709,181.946553 144,179.15 C146.896336,177.462974 149.703423,175.627185 152.41,173.65 C154.21,172.33 155.99,170.97 157.69,169.54 C161.966798,165.94152 165.927908,161.983756 169.53,157.71 C170.96,156 172.32,154.22 173.64,152.42 C175.617185,149.713423 177.452974,146.906336 179.14,144.01 C181.940521,139.170857 184.309663,134.094602 186.22,128.84 C186.6,127.84 186.95,126.73 187.3,125.67 L182.53,124.12 C182.21,125.13 181.88,126.13 181.52,127.13 Z" id="Path" opacity="0.2"></path>
                <path d="M190.55,79.33 C189.776087,74.9260712 188.693416,70.5820217 187.31,66.33 C186.96,65.27 186.61,64.21 186.23,63.16 C184.319123,57.9088276 181.949991,52.8359397 179.15,48 C177.462974,45.1036641 175.627185,42.2965767 173.65,39.59 C172.33,37.79 170.97,36.01 169.54,34.31 C165.94152,30.0332016 161.983756,26.0720924 157.71,22.47 C156,21.04 154.22,19.68 152.42,18.36 C149.713423,16.3828147 146.906336,14.5470262 144.01,12.86 C139.170857,10.059479 134.094602,7.69033678 128.84,5.78 C127.84,5.4 126.73,5.04 125.67,4.7 C121.419312,3.31194109 117.07493,2.22918756 112.67,1.46 C107.16621,0.490657002 101.588499,0.00214726593 96,-1.42108547e-14 L96,5 C105.549862,4.99469184 115.04046,6.49995743 124.12,9.46 C125.12,9.79 126.12,10.12 127.12,10.46 C132.09771,12.2785052 136.906167,14.530483 141.49,17.19 C144.24565,18.7896604 146.915947,20.5320295 149.49,22.41 C151.21,23.65 152.89,24.94 154.49,26.3 C158.547944,29.7079344 162.302066,33.4620558 165.71,37.52 C167.07,39.13 168.36,40.81 169.6,42.52 C174.640105,49.3520968 178.680734,56.8676673 181.6,64.84 C181.96,65.84 182.29,66.84 182.6,67.84 C188.554063,86.1139043 188.554063,105.806096 182.6,124.08 C182.27,125.08 181.94,126.08 181.6,127.08 C178.680734,135.052333 174.640105,142.567903 169.6,149.4 C168.36,151.12 167.07,152.8 165.71,154.4 C162.302066,158.457944 158.547944,162.212066 154.49,165.62 C152.88,166.98 151.2,168.27 149.49,169.51 C146.915947,171.38797 144.24565,173.13034 141.49,174.73 C136.906167,177.389517 132.09771,179.641495 127.12,181.46 C126.12,181.82 125.12,182.15 124.12,182.46 C105.846096,188.414063 86.1539043,188.414063 67.88,182.46 C66.88,182.13 65.88,181.8 64.88,181.46 C56.9076673,178.540734 49.3920968,174.500105 42.56,169.46 C40.84,168.22 39.16,166.93 37.56,165.57 C33.5020558,162.162066 29.7479344,158.407944 26.34,154.35 C24.98,152.74 23.69,151.06 22.45,149.35 L18.37,152.35 C19.69,154.15 21.05,155.93 22.48,157.63 C26.07848,161.906798 30.0362436,165.867908 34.31,169.47 C36.02,170.9 37.8,172.26 39.6,173.58 C42.3065767,175.557185 45.1136641,177.392974 48.01,179.08 C52.8491431,181.880521 57.9253985,184.249663 63.18,186.16 C64.18,186.54 65.29,186.9 66.35,187.24 C70.6003482,188.629242 74.9448151,189.712017 79.35,190.48 C90.3792523,192.413308 101.660748,192.413308 112.69,190.48 C117.09493,189.710812 121.439312,188.628059 125.69,187.24 C126.75,186.9 127.81,186.54 128.86,186.16 C134.101934,184.27053 139.168018,181.924873 144,179.15 C146.896336,177.462974 149.703423,175.627185 152.41,173.65 C154.21,172.33 155.99,170.97 157.69,169.54 C161.966798,165.94152 165.927908,161.983756 169.53,157.71 C170.96,156 172.32,154.22 173.64,152.42 C175.617185,149.713423 177.452974,146.906336 179.14,144.01 C181.940521,139.170857 184.309663,134.094602 186.22,128.84 C186.6,127.84 186.95,126.73 187.3,125.67 C192.144411,110.71899 193.256758,94.8096723 190.54,79.33 L190.55,79.33 Z" id="Path"></path>
            </g>
        </g>
    </g>
</svg>