<?xml version="1.0" encoding="UTF-8"?>
<svg width="192px" height="192px" viewBox="0 0 192 192" version="1.1" xmlns="http://www.w3.org/2000/svg" xmlns:xlink="http://www.w3.org/1999/xlink">
    <title>img/update/70@1x</title>
    <g id="Guide" stroke="none" stroke-width="1" fill="none" fill-rule="evenodd">
        <g id="01_01_05_TOS5_update" transform="translate(-107.000000, -671.000000)" fill="#FFFFFF" fill-rule="nonzero">
            <g id="img/update/70" transform="translate(107.000000, 671.000000)">
                <path d="M190.55,79.33 C189.776087,74.9260712 188.693416,70.5820217 187.31,66.33 C186.96,65.27 186.61,64.21 186.23,63.16 C184.319123,57.9088276 181.949991,52.8359397 179.15,48 C177.462974,45.1036641 175.627185,42.2965767 173.65,39.59 C172.33,37.79 170.97,36.01 169.54,34.31 C165.94152,30.0332016 161.983756,26.0720924 157.71,22.47 C156,21.04 154.22,19.68 152.42,18.36 C149.713423,16.3828147 146.906336,14.5470262 144.01,12.86 C139.170857,10.059479 134.094602,7.69033678 128.84,5.78 C127.84,5.4 126.73,5.04 125.67,4.7 C121.419652,3.31075816 117.075185,2.22798334 112.67,1.46 C101.640748,-0.473308097 90.3592523,-0.473308097 79.33,1.46 C74.9248151,2.22798334 70.5803482,3.31075816 66.33,4.7 C65.27,5.04 64.21,5.4 63.16,5.78 C57.9091685,7.68766507 52.8362906,10.0534465 48,12.85 C45.1036641,14.5370262 42.2965767,16.3728147 39.59,18.35 C37.78,19.67 36,21 34.29,22.46 C30.018768,26.0612038 26.0612038,30.018768 22.46,34.29 C21,36 19.67,37.78 18.35,39.58 C16.3725231,42.2898255 14.5367305,45.100257 12.85,48 C10.0500092,52.8359397 7.68087684,57.9088276 5.77,63.16 C5.39,64.16 5.04,65.27 4.69,66.33 C3.30194109,70.5806884 2.21918756,74.9250698 1.45,79.33 C-0.483308097,90.3592523 -0.483308097,101.640748 1.45,112.67 C2.21918756,117.07493 3.30194109,121.419312 4.69,125.67 C5.03,126.73 5.39,127.79 5.77,128.84 C7.68087684,134.091172 10.0500092,139.16406 12.85,144 C14.5370262,146.896336 16.3728147,149.703423 18.35,152.41 C19.67,154.21 21.03,155.99 22.46,157.69 C26.05848,161.966798 30.0162436,165.927908 34.29,169.53 C36,170.96 37.78,172.32 39.58,173.64 C42.2865767,175.617185 45.0936641,177.452974 47.99,179.14 C52.8291431,181.940521 57.9053985,184.309663 63.16,186.22 C64.16,186.6 65.27,186.96 66.33,187.3 C70.5803482,188.689242 74.9248151,189.772017 79.33,190.54 C90.3592523,192.473308 101.640748,192.473308 112.67,190.54 C117.07493,189.770812 121.419312,188.688059 125.67,187.3 C126.73,186.96 127.79,186.6 128.84,186.22 C134.090832,184.312335 139.163709,181.946553 144,179.15 C146.896336,177.462974 149.703423,175.627185 152.41,173.65 C154.21,172.33 155.99,170.97 157.7,169.54 C161.971232,165.938796 165.928796,161.981232 169.53,157.71 C170.96,156 172.32,154.22 173.64,152.42 C175.617185,149.713423 177.452974,146.906336 179.14,144.01 C181.940521,139.170857 184.309663,134.094602 186.22,128.84 C186.6,127.84 186.95,126.73 187.3,125.67 C192.144411,110.71899 193.256758,94.8096723 190.54,79.33 L190.55,79.33 Z M185.62,111.8 C184.884022,115.973921 183.854805,120.090786 182.54,124.12 C182.21,125.12 181.88,126.12 181.54,127.12 C178.620734,135.092333 174.580105,142.607903 169.54,149.44 C168.3,151.16 167.01,152.84 165.65,154.44 C162.242066,158.497944 158.487944,162.252066 154.43,165.66 C152.82,167.02 151.14,168.31 149.43,169.55 C146.855947,171.42797 144.18565,173.17034 141.43,174.77 C136.846167,177.429517 132.03771,179.681495 127.06,181.5 C126.06,181.86 125.06,182.19 124.06,182.5 C105.786096,188.454063 86.0939043,188.454063 67.82,182.5 C66.82,182.17 65.82,181.84 64.82,181.5 C56.8476673,178.580734 49.3320968,174.540105 42.5,169.5 C40.78,168.26 39.1,166.97 37.5,165.61 C33.4420558,162.202066 29.6879344,158.447944 26.28,154.39 C24.92,152.78 23.63,151.1 22.39,149.39 C17.3674385,142.554922 13.3437213,135.039493 10.44,127.07 C10.08,126.07 9.75,125.07 9.44,124.07 C3.4859365,105.796096 3.4859365,86.1039043 9.44,67.83 C9.77,66.83 10.1,65.83 10.44,64.83 C13.359266,56.8576673 17.3998953,49.3420968 22.44,42.51 C23.68,40.79 24.97,39.11 26.33,37.51 C29.7360814,33.4628823 33.4868065,29.718849 37.54,26.32 C39.15,24.96 40.83,23.67 42.54,22.43 C45.1140526,20.5520295 47.7843501,18.8096604 50.54,17.21 C55.1238327,14.550483 59.9322905,12.2985052 64.91,10.48 C65.91,10.12 66.91,9.79 67.91,9.48 C86.1839043,3.5259365 105.876096,3.5259365 124.15,9.48 C125.15,9.81 126.15,10.14 127.15,10.48 C132.12771,12.2985052 136.936167,14.550483 141.52,17.21 C144.27565,18.8096604 146.945947,20.5520295 149.52,22.43 C151.24,23.67 152.92,24.96 154.52,26.32 C158.577944,29.7279344 162.332066,33.4820558 165.74,37.54 C167.1,39.15 168.39,40.83 169.63,42.54 C174.670105,49.3720968 178.710734,56.8876673 181.63,64.86 C181.99,65.86 182.32,66.86 182.63,67.86 C187.23616,82.0272002 188.29378,97.1085872 185.71,111.78 L185.62,111.8 Z" id="Shape" opacity="0.2"></path>
                <path d="M190.55,79.33 C189.776087,74.9260712 188.693416,70.5820217 187.31,66.33 C186.96,65.27 186.61,64.21 186.23,63.16 C184.319123,57.9088276 181.949991,52.8359397 179.15,48 C177.462974,45.1036641 175.627185,42.2965767 173.65,39.59 C172.33,37.79 170.97,36.01 169.54,34.31 C165.94152,30.0332016 161.983756,26.0720924 157.71,22.47 C156,21.04 154.22,19.68 152.42,18.36 C149.713423,16.3828147 146.906336,14.5470262 144.01,12.86 C139.170857,10.059479 134.094602,7.69033678 128.84,5.78 C127.84,5.4 126.73,5.04 125.67,4.7 C121.419652,3.31075816 117.075185,2.22798334 112.67,1.46 C107.16621,0.490657002 101.588499,0.00214726593 96,1.42108547e-14 L96,5 C105.549862,4.99469184 115.04046,6.49995743 124.12,9.46 C125.12,9.79 126.12,10.12 127.12,10.46 C132.09771,12.2785052 136.906167,14.530483 141.49,17.19 C144.24565,18.7896604 146.915947,20.5320295 149.49,22.41 C151.21,23.65 152.89,24.94 154.49,26.3 C158.547944,29.7079344 162.302066,33.4620558 165.71,37.52 C167.07,39.13 168.36,40.81 169.6,42.52 C174.640105,49.3520968 178.680734,56.8676673 181.6,64.84 C181.96,65.84 182.29,66.84 182.6,67.84 C188.554063,86.1139043 188.554063,105.806096 182.6,124.08 C182.27,125.08 181.94,126.08 181.6,127.08 C178.680734,135.052333 174.640105,142.567903 169.6,149.4 C168.36,151.12 167.07,152.8 165.71,154.4 C162.302066,158.457944 158.547944,162.212066 154.49,165.62 C152.88,166.98 151.2,168.27 149.49,169.51 C146.915947,171.38797 144.24565,173.13034 141.49,174.73 C136.906167,177.389517 132.09771,179.641495 127.12,181.46 C126.12,181.82 125.12,182.15 124.12,182.46 C105.846096,188.414063 86.1539043,188.414063 67.88,182.46 C66.88,182.13 65.88,181.8 64.88,181.46 C56.9076673,178.540734 49.3920968,174.500105 42.56,169.46 C40.84,168.22 39.16,166.93 37.56,165.57 C33.5020558,162.162066 29.7479344,158.407944 26.34,154.35 C24.98,152.74 23.69,151.06 22.45,149.35 C17.4274385,142.514922 13.4037213,134.999493 10.5,127.03 C10.14,126.03 9.81,125.03 9.5,124.03 L4.73,125.58 C5.07,126.64 5.43,127.7 5.81,128.75 C7.70315649,134.030667 10.0589746,139.133824 12.85,144 C14.5370262,146.896336 16.3728147,149.703423 18.35,152.41 C19.67,154.21 21.03,155.99 22.46,157.69 C26.05848,161.966798 30.0162436,165.927908 34.29,169.53 C36,170.96 37.78,172.32 39.58,173.64 C42.2865767,175.617185 45.0936641,177.452974 47.99,179.14 C52.8291431,181.940521 57.9053985,184.309663 63.16,186.22 C64.16,186.6 65.27,186.96 66.33,187.3 C70.5803482,188.689242 74.9248151,189.772017 79.33,190.54 C90.3592523,192.473308 101.640748,192.473308 112.67,190.54 C117.07493,189.770812 121.419312,188.688059 125.67,187.3 C126.73,186.96 127.79,186.6 128.84,186.22 C134.090832,184.312335 139.163709,181.946553 144,179.15 C146.896336,177.462974 149.703423,175.627185 152.41,173.65 C154.21,172.33 155.99,170.97 157.7,169.54 C161.971232,165.938796 165.928796,161.981232 169.53,157.71 C170.96,156 172.32,154.22 173.64,152.42 C175.617185,149.713423 177.452974,146.906336 179.14,144.01 C181.940521,139.170857 184.309663,134.094602 186.22,128.84 C186.6,127.84 186.95,126.73 187.3,125.67 C192.144411,110.71899 193.256758,94.8096723 190.54,79.33 L190.55,79.33 Z" id="Path"></path>
            </g>
        </g>
    </g>
</svg>