<?xml version="1.0" encoding="UTF-8"?>
<svg width="192px" height="192px" viewBox="0 0 192 192" version="1.1" xmlns="http://www.w3.org/2000/svg" xmlns:xlink="http://www.w3.org/1999/xlink">
    <title>img/update/75@1x</title>
    <g id="Guide" stroke="none" stroke-width="1" fill="none" fill-rule="evenodd">
        <g id="01_01_05_TOS5_update" transform="translate(-319.000000, -671.000000)" fill="#FFFFFF" fill-rule="nonzero">
            <g id="img/update/75" transform="translate(319.000000, 671.000000)">
                <path d="M190.55,79.33 C189.776087,74.9260712 188.693416,70.5820217 187.31,66.33 C186.96,65.27 186.61,64.21 186.23,63.16 C184.319123,57.9088276 181.949991,52.8359397 179.15,48 C177.462974,45.1036641 175.627185,42.2965767 173.65,39.59 C172.33,37.79 170.97,36.01 169.54,34.31 C165.941104,30.0271813 161.979779,26.0625104 157.7,22.46 C156,21.03 154.22,19.67 152.42,18.35 C149.713423,16.3728147 146.906336,14.5370262 144.01,12.85 C139.170857,10.049479 134.094602,7.68033678 128.84,5.77 C127.84,5.39 126.73,5.03 125.67,4.69 C121.419312,3.30194109 117.07493,2.21918756 112.67,1.45 C101.640748,-0.483308097 90.3592523,-0.483308097 79.33,1.45 C74.9248151,2.21798334 70.5803482,3.30075816 66.33,4.69 C65.27,5.03 64.21,5.39 63.16,5.77 C57.9088276,7.68087684 52.8359397,10.0500092 48,12.85 C45.1036641,14.5370262 42.2965767,16.3728147 39.59,18.35 C37.78,19.67 36,21 34.29,22.46 C30.018768,26.0612038 26.0612038,30.018768 22.46,34.29 C21,36 19.67,37.78 18.35,39.58 C16.3725231,42.2898255 14.5367305,45.100257 12.85,48 C10.0500092,52.8359397 7.68087684,57.9088276 5.77,63.16 C5.39,64.16 5.03,65.27 4.69,66.33 C3.30194109,70.5806884 2.21918756,74.9250698 1.45,79.33 C-0.483308097,90.3592523 -0.483308097,101.640748 1.45,112.67 C2.21918756,117.07493 3.30194109,121.419312 4.69,125.67 C5.03,126.73 5.39,127.79 5.77,128.84 C7.68087684,134.091172 10.0500092,139.16406 12.85,144 C14.5370262,146.896336 16.3728147,149.703423 18.35,152.41 C19.67,154.21 21.03,155.99 22.46,157.69 C26.05848,161.966798 30.0162436,165.927908 34.29,169.53 C36,170.96 37.78,172.32 39.58,173.64 C42.2865767,175.617185 45.0936641,177.452974 47.99,179.14 C52.8291431,181.940521 57.9053985,184.309663 63.16,186.22 C64.16,186.6 65.27,186.96 66.33,187.3 C70.5803482,188.689242 74.9248151,189.772017 79.33,190.54 C90.3592523,192.473308 101.640748,192.473308 112.67,190.54 C117.07493,189.770812 121.419312,188.688059 125.67,187.3 C126.73,186.96 127.79,186.6 128.84,186.22 C134.090832,184.312335 139.163709,181.946553 144,179.15 C146.896336,177.462974 149.703423,175.627185 152.41,173.65 C154.21,172.33 155.99,170.97 157.69,169.54 C161.966798,165.94152 165.927908,161.983756 169.53,157.71 C170.96,156 172.32,154.22 173.64,152.42 C175.617185,149.713423 177.452974,146.906336 179.14,144.01 C181.940521,139.170857 184.309663,134.094602 186.22,128.84 C186.6,127.84 186.95,126.73 187.3,125.67 C192.144411,110.71899 193.256758,94.8096723 190.54,79.33 L190.55,79.33 Z M181.55,127.13 C178.630734,135.102333 174.590105,142.617903 169.55,149.45 C168.31,151.17 167.02,152.85 165.65,154.45 C162.248168,158.510196 158.497161,162.264549 154.44,165.67 C152.83,167.03 151.15,168.32 149.44,169.56 C146.865947,171.43797 144.19565,173.18034 141.44,174.78 C136.856167,177.439517 132.04771,179.691495 127.07,181.51 C126.07,181.87 125.07,182.2 124.07,182.51 C105.796096,188.464063 86.1039043,188.464063 67.83,182.51 C66.83,182.18 65.83,181.85 64.83,181.51 C56.8576673,178.590734 49.3420968,174.550105 42.51,169.51 C40.79,168.27 39.11,166.98 37.51,165.62 C33.4520558,162.212066 29.6979344,158.457944 26.29,154.4 C24.93,152.79 23.64,151.11 22.4,149.4 C17.3774385,142.564922 13.3537213,135.049493 10.45,127.08 C10.09,126.08 9.76,125.08 9.45,124.08 C3.4959365,105.806096 3.4959365,86.1139043 9.45,67.84 C9.78,66.84 10.11,65.84 10.45,64.84 C13.369266,56.8676673 17.4098953,49.3520968 22.45,42.52 C23.69,40.8 24.98,39.12 26.34,37.52 C29.7424653,33.4698445 33.4898445,29.7224653 37.54,26.32 C39.15,24.96 40.83,23.67 42.54,22.43 C49.3781688,17.4066052 56.8970172,13.3828596 64.87,10.48 C65.87,10.12 66.87,9.79 67.87,9.48 C86.1439043,3.5259365 105.836096,3.5259365 124.11,9.48 C125.11,9.81 126.11,10.14 127.11,10.48 C132.08771,12.2985052 136.896167,14.550483 141.48,17.21 C144.23565,18.8096604 146.905947,20.5520295 149.48,22.43 C151.2,23.67 152.88,24.96 154.48,26.32 C158.537944,29.7279344 162.292066,33.4820558 165.7,37.54 C167.06,39.15 168.35,40.83 169.59,42.54 C174.630105,49.3720968 178.670734,56.8876673 181.59,64.86 C181.95,65.86 182.28,66.86 182.59,67.86 C188.544063,86.1339043 188.544063,105.826096 182.59,124.1 C182.21,125.13 181.88,126.13 181.52,127.13 L181.55,127.13 Z" id="Shape" opacity="0.2"></path>
                <path d="M190.55,79.33 C189.776087,74.9260712 188.693416,70.5820217 187.31,66.33 C186.96,65.27 186.61,64.21 186.23,63.16 C184.319123,57.9088276 181.949991,52.8359397 179.15,47.9999979 C177.462974,45.1036641 175.627185,42.2965767 173.65,39.59 C172.33,37.79 170.97,36.01 169.54,34.31 C165.941104,30.0271813 161.979779,26.0625104 157.7,22.46 C155.999998,21.03 154.22,19.67 152.42,18.35 C149.713423,16.3728147 146.906336,14.5370262 144.01,12.85 C139.170857,10.049479 134.094602,7.68033678 128.84,5.77 C127.84,5.39 126.73,5.03 125.67,4.69 C121.419312,3.30194109 117.07493,2.21918756 112.67,1.45 C107.165917,0.484009152 101.588208,-2.05533503e-06 95.9999979,-2.05533503e-06 L95.9999979,4.99999794 C105.549862,4.99469184 115.04046,6.49995743 124.12,9.46 C125.12,9.79 126.12,10.12 127.12,10.46 C132.09771,12.2785052 136.906167,14.530483 141.49,17.19 C144.24565,18.7896604 146.915947,20.5320295 149.49,22.41 C151.21,23.65 152.89,24.94 154.49,26.3 C158.547944,29.7079344 162.302066,33.4620558 165.71,37.52 C167.07,39.13 168.36,40.81 169.6,42.52 C174.640105,49.3520968 178.680734,56.8676673 181.6,64.84 C181.96,65.84 182.29,66.84 182.6,67.84 C188.554063,86.1139043 188.554063,105.806096 182.6,124.08 C182.27,125.08 181.94,126.08 181.6,127.08 C178.680734,135.052333 174.640105,142.567903 169.6,149.4 C168.36,151.12 167.07,152.8 165.7,154.4 C162.298168,158.460196 158.547161,162.214549 154.49,165.62 C152.88,166.98 151.2,168.27 149.49,169.51 C146.915947,171.38797 144.24565,173.13034 141.49,174.73 C136.906167,177.389517 132.09771,179.641495 127.12,181.46 C126.12,181.82 125.12,182.15 124.12,182.46 C105.846096,188.414063 86.1539043,188.414063 67.88,182.46 C66.88,182.13 65.88,181.8 64.88,181.46 C56.9076673,178.540734 49.3920968,174.500105 42.56,169.46 C40.84,168.22 39.16,166.93 37.56,165.57 C33.5020558,162.162066 29.7479344,158.407944 26.34,154.35 C24.98,152.74 23.69,151.06 22.45,149.35 C17.4274385,142.514922 13.4037213,134.999493 10.4999979,127.03 C10.14,126.03 9.81,125.03 9.49999794,124.03 C6.53573786,114.981342 5.01708218,105.521805 4.99999794,95.9999979 L-2.05533502e-06,95.9999979 C-2.05533502e-06,101.588208 0.484009152,107.165917 1.45,112.67 C2.21918756,117.07493 3.30194109,121.419312 4.69,125.67 C5.03,126.73 5.39,127.79 5.77,128.84 C7.68087684,134.091172 10.0500092,139.16406 12.85,143.999998 C14.5370262,146.896336 16.3728147,149.703423 18.35,152.41 C19.67,154.21 21.03,155.99 22.46,157.69 C26.05848,161.966798 30.0162436,165.927908 34.29,169.53 C35.9999979,170.96 37.78,172.32 39.58,173.64 C42.2865767,175.617185 45.0936641,177.452974 47.99,179.14 C52.8291431,181.940521 57.9053985,184.309663 63.16,186.22 C64.16,186.6 65.27,186.96 66.33,187.3 C70.5803482,188.689242 74.9248151,189.772017 79.33,190.54 C90.3592523,192.473308 101.640748,192.473308 112.67,190.54 C117.07493,189.770812 121.419312,188.688059 125.67,187.3 C126.73,186.96 127.79,186.6 128.84,186.22 C134.090832,184.312335 139.163709,181.946553 143.999998,179.15 C146.896336,177.462974 149.703423,175.627185 152.41,173.65 C154.21,172.33 155.99,170.97 157.69,169.54 C161.966798,165.94152 165.927908,161.983756 169.53,157.71 C170.96,155.999998 172.32,154.22 173.64,152.42 C175.617185,149.713423 177.452974,146.906336 179.14,144.01 C181.940521,139.170857 184.309663,134.094602 186.22,128.84 C186.6,127.84 186.95,126.73 187.3,125.67 C192.144411,110.71899 193.256758,94.8096723 190.54,79.33 L190.55,79.33 Z" id="Path"></path>
            </g>
        </g>
    </g>
</svg>