<?xml version="1.0" encoding="UTF-8"?>
<svg width="193px" height="192px" viewBox="0 0 193 192" version="1.1" xmlns="http://www.w3.org/2000/svg" xmlns:xlink="http://www.w3.org/1999/xlink">
    <title>img/update/85@1x</title>
    <g id="Guide" stroke="none" stroke-width="1" fill="none" fill-rule="evenodd">
        <g id="01_01_05_TOS5_update" transform="translate(-744.000000, -671.000000)" fill="#FFFFFF" fill-rule="nonzero">
            <g id="img/update/85" transform="translate(744.000000, 671.000000)">
                <path d="M191.55,79.33 C190.776087,74.9260712 189.693416,70.5820217 188.31,66.33 C187.96,65.27 187.61,64.21 187.23,63.16 C185.319123,57.9088276 182.949991,52.8359397 180.15,48 C178.462974,45.1036641 176.627185,42.2965767 174.65,39.59 C173.33,37.79 171.97,36.01 170.54,34.31 C166.94152,30.0332016 162.983756,26.0720924 158.71,22.47 C157,21.04 155.22,19.68 153.42,18.36 C150.713423,16.3828147 147.906336,14.5470262 145.01,12.86 C140.170857,10.059479 135.094602,7.69033678 129.84,5.78 C128.84,5.4 127.73,5.04 126.67,4.7 C122.419652,3.31075816 118.075185,2.22798334 113.67,1.46 C102.640748,-0.473308097 91.3592523,-0.473308097 80.33,1.46 C75.9248151,2.22798334 71.5803482,3.31075816 67.33,4.7 C66.27,5.04 65.21,5.4 64.16,5.78 C58.9091685,7.68766507 53.8362906,10.0534465 49,12.85 C46.1036641,14.5370262 43.2965767,16.3728147 40.59,18.35 C38.78,19.67 37,21 35.29,22.46 C31.018768,26.0612038 27.0612038,30.018768 23.46,34.29 C22,36 20.67,37.78 19.35,39.58 C17.3725231,42.2898255 15.5367305,45.100257 13.85,48 C11.0500092,52.8359397 8.68087684,57.9088276 6.77,63.16 C6.39,64.16 6.04,65.27 5.69,66.33 C-0.576658635,85.6136525 -0.576658635,106.386347 5.69,125.67 C6.04,126.73 6.39,127.79 6.77,128.84 C8.68087684,134.091172 11.0500092,139.16406 13.85,144 C15.5370262,146.896336 17.3728147,149.703423 19.35,152.41 C20.67,154.21 22.03,155.99 23.46,157.69 C27.05848,161.966798 31.0162436,165.927908 35.29,169.53 C37,170.96 38.78,172.32 40.58,173.64 C43.2865767,175.617185 46.0936641,177.452974 48.990006,179.14 C53.8291431,181.940521 58.9053985,184.309663 64.16,186.22 C65.16,186.6 66.27,186.96 67.33,187.3 C71.5803482,188.689242 75.9248151,189.772017 80.33,190.54 C91.3592523,192.473308 102.640748,192.473308 113.67,190.54 C118.075185,189.772017 122.419652,188.689242 126.67,187.3 C127.73,186.96 128.79,186.6 129.84,186.22 C135.090832,184.312335 140.163709,181.946553 145,179.15 C147.896336,177.462974 150.703423,175.627185 153.41,173.65 C155.21,172.33 156.990006,170.97 158.7,169.54 C162.971232,165.938796 166.928796,161.981232 170.53,157.71 C171.96,156 173.32,154.22 174.64,152.42 C176.617185,149.713423 178.452974,146.906336 180.14,144.01 C182.940521,139.170857 185.309663,134.094602 187.22,128.84 C187.6,127.84 187.95,126.73 188.3,125.67 C193.144411,110.71899 194.256758,94.8096723 191.54,79.33 L191.55,79.33 Z M182.55,127.13 C179.630734,135.102333 175.590105,142.617903 170.55,149.45 C169.31,151.17 168.02,152.85 166.66,154.45 C163.252066,158.507944 159.497944,162.262066 155.44,165.67 C153.83,167.03 152.15,168.32 150.44,169.56 C147.865947,171.43797 145.19565,173.18034 142.44,174.78 C137.856167,177.439517 133.04771,179.691495 128.07,181.51 C127.07,181.87 126.07,182.2 125.07,182.51 C106.796096,188.464063 87.1039043,188.464063 68.83,182.51 C67.83,182.18 66.83,181.85 65.83,181.51 C60.8522905,179.691495 56.0438327,177.439517 51.46,174.78 C48.7043501,173.18034 46.0340526,171.43797 43.46,169.56 C41.74,168.32 40.06,167.03 38.46,165.67 C34.4020558,162.262066 30.6479344,158.507944 27.24,154.45 C25.88,152.84 24.59,151.16 23.35,149.45 C18.3274385,142.614922 14.3037213,135.099493 11.4,127.13 C11.04,126.13 10.71,125.13 10.4,124.13 C4.4459365,105.856096 4.4459365,86.1639043 10.4,67.89 C10.73,66.89 11.06,65.89 11.4,64.89 C14.319266,56.9176673 18.3598953,49.4020968 23.4,42.57 C24.64,40.85 25.93,39.17 27.29,37.57 C30.7061338,33.5003691 34.4703691,29.7361338 38.54,26.32 C40.15,24.96 41.83,23.67 43.54,22.43 C46.1140526,20.5520295 48.7843501,18.8096604 51.54,17.21 C56.1238327,14.550483 60.9322905,12.2985052 65.91,10.48 C66.91,10.12 67.91,9.79 68.91,9.48 C87.1839043,3.5259365 106.876096,3.5259365 125.15,9.48 C126.15,9.81 127.15,10.14 128.15,10.48 C133.12771,12.2985052 137.936167,14.550483 142.52,17.21 C145.27565,18.8096604 147.945947,20.5520295 150.52,22.43 C152.24,23.67 153.92,24.96 155.52,26.32 C159.577944,29.7279344 163.332066,33.4820558 166.74,37.54 C168.1,39.15 169.39,40.83 170.63,42.54 C175.670105,49.3720968 179.710734,56.8876673 182.63,64.86 C182.99,65.86 183.32,66.86 183.63,67.86 C189.584063,86.1339043 189.584063,105.826096 183.63,124.1 C183.21,125.13 182.88,126.13 182.52,127.13 L182.55,127.13 Z" id="Shape" opacity="0.2"></path>
                <path d="M191.55,79.33 C190.776087,74.9260712 189.693416,70.5820217 188.31,66.33 C187.96,65.27 187.61,64.21 187.23,63.16 C185.319123,57.9088276 182.949991,52.8359397 180.15,48 C178.462974,45.1036641 176.627185,42.2965767 174.65,39.59 C173.33,37.79 171.97,36.01 170.54,34.31 C166.94152,30.0332016 162.983756,26.0720924 158.71,22.47 C157,21.04 155.22,19.68 153.42,18.36 C150.713423,16.3828147 147.906336,14.5470262 145.01,12.86 C140.170857,10.059479 135.094602,7.69033678 129.84,5.78 C128.84,5.4 127.73,5.04 126.67,4.7 C122.419652,3.31075816 118.075185,2.22798334 113.67,1.46 C108.16621,0.490657002 102.588499,0.00214726593 97,1.42108547e-14 L97,5 C106.549862,4.99469184 116.04046,6.49995743 125.12,9.46 C126.12,9.79 127.12,10.12 128.12,10.46 C133.09771,12.2785052 137.906167,14.530483 142.490006,17.19 C145.24565,18.7896604 147.915947,20.5320295 150.490006,22.41 C152.21,23.65 153.89,24.94 155.490006,26.3 C159.547944,29.7079344 163.302066,33.4620558 166.71,37.52 C168.07,39.13 169.36,40.81 170.6,42.52 C175.640105,49.3520968 179.680734,56.8676673 182.6,64.84 C182.96,65.84 183.29,66.84 183.6,67.84 C189.554063,86.1139043 189.554063,105.806096 183.6,124.08 C183.27,125.08 182.94,126.08 182.6,127.08 C179.680734,135.052333 175.640105,142.567903 170.6,149.4 C169.36,151.12 168.07,152.8 166.71,154.4 C163.302066,158.457944 159.547944,162.212066 155.490006,165.62 C153.88,166.98 152.2,168.27 150.490006,169.51 C147.915947,171.38797 145.24565,173.13034 142.490006,174.73 C137.906167,177.389517 133.09771,179.641495 128.12,181.46 C127.12,181.82 126.12,182.15 125.12,182.46 C106.846096,188.414063 87.1539043,188.414063 68.88,182.46 C67.88,182.13 66.88,181.8 65.88,181.46 C60.9022905,179.641495 56.0938327,177.389517 51.51,174.73 C48.7543501,173.13034 46.0840526,171.38797 43.51,169.51 C41.79,168.27 40.11,166.98 38.51,165.62 C34.4520558,162.212066 30.6979344,158.457944 27.29,154.4 C25.93,152.79 24.64,151.11 23.4,149.4 C18.3774385,142.564922 14.3537213,135.049493 11.45,127.08 C11.09,126.08 10.76,125.08 10.45,124.08 C4.4959365,105.806096 4.4959365,86.1139043 10.45,67.84 C10.78,66.84 11.11,65.84 11.45,64.84 C14.369266,56.8676673 18.4098953,49.3520968 23.45,42.52 L19.37,39.52 C17.3839481,42.248863 15.5414498,45.0793677 13.85,48 C11.0500092,52.8359397 8.68087684,57.9088276 6.77,63.16 C6.39,64.16 6.04,65.27 5.69,66.33 C-0.576658635,85.6136525 -0.576658635,106.386347 5.69,125.67 C6.04,126.73 6.39,127.79 6.77,128.84 C8.68087684,134.091172 11.0500092,139.16406 13.85,144 C15.5370262,146.896336 17.3728147,149.703423 19.35,152.41 C20.67,154.21 22.03,155.99 23.46,157.69 C27.05848,161.966798 31.0162436,165.927908 35.29,169.53 C37,170.96 38.78,172.32 40.58,173.64 C43.2865767,175.617185 46.0936641,177.452974 48.990006,179.14 C53.8291431,181.940521 58.9053985,184.309663 64.16,186.22 C65.16,186.6 66.27,186.96 67.33,187.3 C71.5803482,188.689242 75.9248151,189.772017 80.33,190.54 C91.3592523,192.473308 102.640748,192.473308 113.67,190.54 C118.075185,189.772017 122.419652,188.689242 126.67,187.3 C127.73,186.96 128.79,186.6 129.84,186.22 C135.090832,184.312335 140.163709,181.946553 145,179.15 C147.896336,177.462974 150.703423,175.627185 153.41,173.65 C155.21,172.33 156.990006,170.97 158.7,169.54 C162.971232,165.938796 166.928796,161.981232 170.53,157.71 C171.96,156 173.32,154.22 174.64,152.42 C176.617185,149.713423 178.452974,146.906336 180.14,144.01 C182.940521,139.170857 185.309663,134.094602 187.22,128.84 C187.6,127.84 187.95,126.73 188.3,125.67 C193.144411,110.71899 194.256758,94.8096723 191.54,79.33 L191.55,79.33 Z" id="Path"></path>
            </g>
        </g>
    </g>
</svg>