<?xml version="1.0" encoding="UTF-8"?>
<svg width="192px" height="192px" viewBox="0 0 192 192" version="1.1" xmlns="http://www.w3.org/2000/svg" xmlns:xlink="http://www.w3.org/1999/xlink">
    <title>img/update/95@1x</title>
    <g id="Guide" stroke="none" stroke-width="1" fill="none" fill-rule="evenodd">
        <g id="01_01_05_TOS5_update" transform="translate(-1169.000000, -671.000000)" fill="#FFFFFF" fill-rule="nonzero">
            <g id="img/update/95" transform="translate(1169.000000, 671.000000)">
                <path d="M190.55,79.33 C189.776087,74.9260712 188.693416,70.5820217 187.31,66.33 C186.96,65.27 186.61,64.21 186.23,63.16 C184.319123,57.9088276 181.949991,52.8359397 179.15,48 C177.462974,45.1036641 175.627185,42.2965767 173.65,39.59 C172.33,37.79 170.97,36.01 169.54,34.31 C165.941104,30.0271813 161.979779,26.0625104 157.7,22.46 C156,21.03 154.22,19.67 152.42,18.35 C149.713423,16.3728147 146.906336,14.5370262 144.01,12.85 C139.170857,10.049479 134.094602,7.68033678 128.84,5.77 C127.84,5.39 126.73,5.03 125.67,4.69 C121.419312,3.30194109 117.07493,2.21918756 112.67,1.45 C101.640748,-0.483308097 90.3592523,-0.483308097 79.33,1.45 C74.9248151,2.21798334 70.5803482,3.30075816 66.33,4.69 C65.27,5.03 64.21,5.39 63.16,5.77 C57.9088276,7.68087684 52.8359397,10.0500092 48,12.85 C45.1036641,14.5370262 42.2965767,16.3728147 39.59,18.35 C37.78,19.67 36,21 34.29,22.46 C30.018768,26.0612038 26.0612038,30.018768 22.46,34.29 C21,36 19.67,37.78 18.35,39.58 C16.3725231,42.2898255 14.5367305,45.100257 12.85,48 C10.0500092,52.8359397 7.68087684,57.9088276 5.77,63.16 C5.39,64.16 5.03,65.27 4.69,66.33 C3.30194109,70.5806884 2.21918756,74.9250698 1.45,79.33 C-0.483308097,90.3592523 -0.483308097,101.640748 1.45,112.67 C2.21918756,117.07493 3.30194109,121.419312 4.69,125.67 C5.03,126.73 5.39,127.79 5.77,128.84 C7.68087684,134.091172 10.0500092,139.16406 12.85,144 C14.5370262,146.896336 16.3728147,149.703423 18.35,152.41 C19.67,154.21 21.03,155.99 22.46,157.69 C26.05848,161.966798 30.0162436,165.927908 34.29,169.53 C36,170.96 37.78,172.32 39.58,173.64 C46.8013766,178.933959 54.7414565,183.170015 63.16,186.22 C64.16,186.6 65.27,186.96 66.33,187.3 C70.5803482,188.689242 74.9248151,189.772017 79.33,190.54 C90.3592523,192.473308 101.640748,192.473308 112.67,190.54 C117.07493,189.770812 121.419312,188.688059 125.67,187.3 C126.73,186.96 127.79,186.6 128.84,186.22 C134.090832,184.312335 139.163709,181.946553 144,179.15 C146.896336,177.462974 149.703423,175.627185 152.41,173.65 C154.21,172.33 155.99,170.97 157.69,169.54 C161.966798,165.94152 165.927908,161.983756 169.53,157.71 C170.96,156 172.32,154.22 173.64,152.42 C175.617185,149.713423 177.452974,146.906336 179.14,144.01 C181.940521,139.170857 184.309663,134.094602 186.22,128.84 C186.6,127.84 186.95,126.73 187.3,125.67 C192.144411,110.71899 193.256758,94.8096723 190.54,79.33 L190.55,79.33 Z M185.62,111.8 C184.884022,115.973921 183.854805,120.090786 182.54,124.12 C182.21,125.12 181.88,126.12 181.54,127.12 C178.620734,135.092333 174.580105,142.607903 169.54,149.44 C168.3,151.16 167.01,152.84 165.64,154.44 C162.238168,158.500196 158.487161,162.254549 154.43,165.66 C152.82,167.02 151.14,168.31 149.43,169.55 C142.595838,174.592556 135.076607,178.633343 127.1,181.55 C126.1,181.91 125.1,182.24 124.1,182.55 C105.826096,188.504063 86.1339043,188.504063 67.86,182.55 C66.86,182.22 65.86,181.89 64.86,181.55 C56.8876673,178.630734 49.3720968,174.590105 42.54,169.55 C40.82,168.31 39.14,167.02 37.54,165.66 C33.4820558,162.252066 29.7279344,158.497944 26.32,154.44 C24.96,152.83 23.67,151.15 22.43,149.44 C17.4074385,142.604922 13.3837213,135.089493 10.48,127.12 C10.12,126.12 9.79,125.12 9.48,124.12 C3.5259365,105.846096 3.5259365,86.1539043 9.48,67.88 C9.81,66.88 10.14,65.88 10.48,64.88 C13.399266,56.9076673 17.4398953,49.3920968 22.48,42.56 C23.72,40.84 25.01,39.16 26.37,37.56 C29.761174,33.4972638 33.4985282,29.7364883 37.54,26.32 C39.15,24.96 40.83,23.67 42.54,22.43 C49.3781688,17.4066052 56.8970172,13.3828596 64.87,10.48 C65.87,10.12 66.87,9.79 67.87,9.48 C86.1439043,3.5259365 105.836096,3.5259365 124.11,9.48 C125.11,9.81 126.11,10.14 127.11,10.48 C132.08771,12.2985052 136.896167,14.550483 141.48,17.21 C144.23565,18.8096604 146.905947,20.5520295 149.48,22.43 C151.2,23.67 152.88,24.96 154.48,26.32 C158.537161,29.725451 162.288168,33.4798045 165.69,37.54 C167.06,39.15 168.35,40.83 169.59,42.54 C174.630105,49.3720968 178.670734,56.8876673 181.59,64.86 C181.95,65.86 182.28,66.86 182.59,67.86 C187.19616,82.0272002 188.25378,97.1085872 185.67,111.78 L185.62,111.8 Z" id="Shape" opacity="0.2"></path>
                <path d="M190.55,79.33 C189.776087,74.9260712 188.693416,70.5820217 187.31,66.33 C186.96,65.27 186.61,64.21 186.23,63.16 C184.319123,57.9088276 181.949991,52.8359397 179.15,47.9999979 C177.462974,45.1036641 175.627185,42.2965767 173.65,39.59 C172.33,37.79 170.97,36.01 169.54,34.31 C165.941104,30.0271813 161.979779,26.0625104 157.7,22.46 C156,21.03 154.22,19.67 152.42,18.35 C149.713423,16.3728147 146.906336,14.5370262 144.01,12.85 C139.170857,10.049479 134.094602,7.68033678 128.84,5.77 C127.84,5.39 126.73,5.03 125.67,4.69 C121.419312,3.30194109 117.07493,2.21918756 112.67,1.45 C107.165917,0.484009152 101.588208,-2.05533503e-06 96,-2.05533503e-06 L96,4.99999794 C105.549862,4.99469184 115.04046,6.49995743 124.12,9.46 C125.12,9.79 126.12,10.12 127.12,10.46 C132.09771,12.2785052 136.906167,14.530483 141.49,17.19 C144.24565,18.7896604 146.915947,20.5320295 149.49,22.41 C151.21,23.65 152.89,24.94 154.49,26.3 C158.547161,29.705451 162.298168,33.4598045 165.7,37.52 C167.07,39.13 168.36,40.81 169.6,42.52 C174.640105,49.3520968 178.680734,56.8676673 181.6,64.84 C181.96,65.84 182.29,66.84 182.6,67.84 C188.554063,86.1139043 188.554063,105.806096 182.6,124.08 C182.27,125.08 181.94,126.08 181.6,127.08 C178.680734,135.052333 174.640105,142.567903 169.6,149.4 C168.36,151.12 167.07,152.8 165.7,154.4 C162.298168,158.460196 158.547161,162.214549 154.49,165.62 C152.88,166.98 151.2,168.27 149.49,169.51 C142.655838,174.552556 135.136607,178.593343 127.16,181.51 C126.16,181.87 125.16,182.2 124.16,182.51 C105.886096,188.464063 86.1939043,188.464063 67.92,182.51 C66.92,182.18 65.92,181.85 64.92,181.51 C56.9476673,178.590734 49.4320968,174.550105 42.6,169.51 C40.88,168.27 39.2,166.98 37.6,165.62 C33.5420558,162.212066 29.7879344,158.457944 26.38,154.4 C25.02,152.79 23.73,151.11 22.49,149.4 C17.4674385,142.564922 13.4437213,135.049493 10.54,127.08 C10.18,126.08 9.85,125.08 9.54,124.08 C3.5859365,105.806096 3.5859365,86.1139043 9.54,67.84 C9.87,66.84 10.2,65.84 10.54,64.84 C13.459266,56.8676673 17.4998953,49.3520968 22.54,42.52 C23.78,40.8 25.07,39.12 26.43,37.52 C29.8038811,33.4736833 33.5210355,29.726417 37.54,26.32 C39.15,24.96 40.83,23.67 42.54,22.43 C49.3781688,17.4066052 56.8970172,13.3828596 64.87,10.48 C65.87,10.12 66.87,9.79 67.87,9.48 L66.33,4.69 C65.27,5.03 64.21,5.39 63.16,5.77 C57.9088276,7.68087684 52.8359397,10.0500092 48,12.85 C45.1036641,14.5370262 42.2965767,16.3728147 39.59,18.35 C37.78,19.67 36,20.9999979 34.29,22.46 C30.018768,26.0612038 26.0612038,30.018768 22.46,34.29 C21,35.9999979 19.67,37.78 18.35,39.58 C16.3725231,42.2898255 14.5367305,45.100257 12.85,47.9999979 C10.0500092,52.8359397 7.68087684,57.9088276 5.77,63.16 C5.39,64.16 5.03,65.27 4.69,66.33 C3.30194109,70.5806884 2.21918756,74.9250698 1.45,79.33 C-0.483308097,90.3592523 -0.483308097,101.640748 1.45,112.67 C2.21918756,117.07493 3.30194109,121.419312 4.69,125.67 C5.03,126.73 5.39,127.79 5.77,128.84 C7.68087684,134.091172 10.0500092,139.16406 12.85,143.999998 C14.5370262,146.896336 16.3728147,149.703423 18.35,152.41 C19.67,154.21 21.03,155.99 22.46,157.69 C26.05848,161.966798 30.0162436,165.927908 34.29,169.53 C36,170.96 37.78,172.32 39.58,173.64 C46.8013766,178.933959 54.7414565,183.170015 63.16,186.22 C64.16,186.6 65.27,186.96 66.33,187.3 C70.5803482,188.689242 74.9248151,189.772017 79.33,190.54 C90.3592523,192.473308 101.640748,192.473308 112.67,190.54 C117.07493,189.770812 121.419312,188.688059 125.67,187.3 C126.73,186.96 127.79,186.6 128.84,186.22 C134.090832,184.312335 139.163709,181.946553 144,179.15 C146.896336,177.462974 149.703423,175.627185 152.41,173.65 C154.21,172.33 155.99,170.97 157.69,169.54 C161.966798,165.94152 165.927908,161.983756 169.53,157.71 C170.96,155.999998 172.32,154.22 173.64,152.42 C175.617185,149.713423 177.452974,146.906336 179.14,144.01 C181.940521,139.170857 184.309663,134.094602 186.22,128.84 C186.6,127.84 186.95,126.73 187.3,125.67 C192.144411,110.71899 193.256758,94.8096723 190.54,79.33 L190.55,79.33 Z" id="Path"></path>
            </g>
        </g>
    </g>
</svg>